<mxfile host="app.diagrams.net" modified="2023-08-25T16:02:12.149Z" agent="Mozilla/5.0 (Windows NT 10.0; Win64; x64) AppleWebKit/537.36 (KHTML, like Gecko) Chrome/116.0.0.0 Safari/537.36" version="21.6.9" etag="ca_NtVQEd2Yg6IKKZqwH" type="github">
  <diagram name="PÃ¡gina-1" id="hxpffWOmAhd4Fq2h1v_2">
    <mxGraphModel>
      <root>
        <mxCell id="0" />
        <mxCell id="1" parent="0" />
      </root>
    </mxGraphModel>
  </diagram>
</mxfile>
